<?xml version="1.0" standalone="no"?>
<!DOCTYPE svg PUBLIC "-//W3C//DTD SVG 20010904//EN"
 "http://www.w3.org/TR/2001/REC-SVG-20010904/DTD/svg10.dtd">
<svg version="1.0" xmlns="http://www.w3.org/2000/svg"
 width="192.000000pt" height="192.000000pt" viewBox="0 0 192.000000 192.000000"
 preserveAspectRatio="xMidYMid meet">
<metadata>
Created by potrace 1.14, written by Peter Selinger 2001-2017
</metadata>
<g transform="translate(0.000000,192.000000) scale(0.100000,-0.100000)"
fill="#000000" stroke="none">
<path d="M776 1823 c-100 -209 -266 -586 -261 -593 7 -12 75 -13 92 -2 8 5
254 530 290 620 4 9 -10 12 -49 12 -53 0 -55 -1 -72 -37z"/>
<path d="M248 1780 c-153 -81 -140 -418 18 -470 20 -7 64 -10 98 -8 78 5 117
31 153 101 22 44 26 65 27 142 1 81 -2 97 -29 150 -24 49 -39 64 -75 83 -57
28 -140 29 -192 2z m147 -104 c28 -28 40 -95 31 -169 -9 -83 -48 -119 -110
-103 -65 16 -78 213 -19 278 23 25 69 23 98 -6z"/>
<path d="M930 1740 l0 -50 45 0 45 0 0 -195 0 -195 55 0 55 0 0 245 0 245
-100 0 -100 0 0 -50z"/>
<path d="M269 1172 c-123 -64 -172 -218 -109 -342 73 -142 285 -175 403 -62
l27 26 -36 37 -37 38 -35 -27 c-28 -22 -45 -26 -94 -27 -56 0 -61 2 -94 37
-31 34 -34 43 -34 97 0 49 4 65 26 90 48 58 144 65 203 16 16 -14 31 -25 34
-25 3 0 20 18 37 40 31 39 32 42 15 60 -10 11 -40 31 -68 45 -74 36 -165 35
-238 -3z"/>
<path d="M769 1172 c-103 -54 -153 -161 -129 -277 36 -175 250 -254 401 -149
113 78 139 247 56 356 -74 97 -218 128 -328 70z m177 -88 c49 -23 74 -70 74
-137 0 -48 -4 -61 -30 -91 -61 -69 -139 -69 -200 0 -26 30 -30 43 -30 91 0 66
25 113 73 137 41 20 70 20 113 0z"/>
<path d="M1222 948 l3 -243 58 -3 57 -3 1 143 1 143 59 -122 c60 -122 61 -123
95 -123 34 0 35 2 92 116 l57 115 5 -133 5 -133 55 0 55 0 3 243 2 242 -77 0
-78 0 -59 -125 -59 -125 -57 122 -58 123 -81 3 -81 3 2 -243z"/>
<path d="M160 350 l0 -240 145 0 c158 0 185 7 224 56 15 19 21 41 21 76 0 44
-4 54 -35 85 l-36 36 21 22 c50 54 29 150 -41 185 -32 17 -59 20 -169 20
l-130 0 0 -240z m224 134 c23 -9 21 -61 -3 -74 -11 -5 -38 -10 -60 -10 l-41 0
0 45 0 45 44 0 c24 0 51 -3 60 -6z m34 -196 c15 -13 16 -50 0 -66 -7 -7 -39
-12 -75 -12 l-63 0 0 51 0 51 63 -7 c34 -4 68 -12 75 -17z"/>
<path d="M630 350 l0 -240 60 0 60 0 0 240 0 240 -60 0 -60 0 0 -240z"/>
<path d="M850 350 c0 -153 4 -240 10 -241 6 0 31 -1 58 -1 l47 -1 5 142 5 141
94 -124 c129 -172 117 -162 184 -158 l57 4 0 239 0 239 -60 0 -60 0 0 -147 0
-146 -112 146 -111 147 -59 0 -58 0 0 -240z"/>
<path d="M1410 350 l0 -240 185 0 185 0 0 50 0 50 -125 0 -125 0 0 45 0 45
111 0 110 0 -3 48 -3 47 -107 3 -108 3 0 44 0 45 120 0 120 0 0 50 0 50 -180
0 -180 0 0 -240z"/>
</g>
</svg>
